<svg id="visual" viewBox="0 0 960 300" width="960" height="300" xmlns="http://www.w3.org/2000/svg" xmlns:xlink="http://www.w3.org/1999/xlink" version="1.1"><path d="M0 180L26.7 183.2C53.3 186.3 106.7 192.7 160 196.8C213.3 201 266.7 203 320 191C373.3 179 426.7 153 480 136.5C533.3 120 586.7 113 640 117.2C693.3 121.3 746.7 136.7 800 151.3C853.3 166 906.7 180 933.3 187L960 194L960 301L933.3 301C906.7 301 853.3 301 800 301C746.7 301 693.3 301 640 301C586.7 301 533.3 301 480 301C426.7 301 373.3 301 320 301C266.7 301 213.3 301 160 301C106.7 301 53.3 301 26.7 301L0 301Z" fill="#ebf2fa" stroke-linecap="round" stroke-linejoin="miter"></path></svg>