<svg id="visual" viewBox="0 0 960 300" width="960" height="300" xmlns="http://www.w3.org/2000/svg" xmlns:xlink="http://www.w3.org/1999/xlink" version="1.1"><path d="M0 61L7.3 55C14.7 49 29.3 37 43.8 35.5C58.3 34 72.7 43 87.2 43C101.7 43 116.3 34 131 32C145.7 30 160.3 35 174.8 36.5C189.3 38 203.7 36 218.2 36.5C232.7 37 247.3 40 261.8 35C276.3 30 290.7 17 305.2 13C319.7 9 334.3 14 349 21C363.7 28 378.3 37 392.8 43C407.3 49 421.7 52 436.2 56.5C450.7 61 465.3 67 480 60.5C494.7 54 509.3 35 523.8 27.5C538.3 20 552.7 24 567.2 25C581.7 26 596.3 24 611 30C625.7 36 640.3 50 654.8 57.5C669.3 65 683.7 66 698.2 62.5C712.7 59 727.3 51 741.8 39.8C756.3 28.7 770.7 14.3 785.2 9.8C799.7 5.3 814.3 10.7 829 12.3C843.7 14 858.3 12 872.8 18.5C887.3 25 901.7 40 916.2 44.5C930.7 49 945.3 43 952.7 40L960 37L960 0L952.7 0C945.3 0 930.7 0 916.2 0C901.7 0 887.3 0 872.8 0C858.3 0 843.7 0 829 0C814.3 0 799.7 0 785.2 0C770.7 0 756.3 0 741.8 0C727.3 0 712.7 0 698.2 0C683.7 0 669.3 0 654.8 0C640.3 0 625.7 0 611 0C596.3 0 581.7 0 567.2 0C552.7 0 538.3 0 523.8 0C509.3 0 494.7 0 480 0C465.3 0 450.7 0 436.2 0C421.7 0 407.3 0 392.8 0C378.3 0 363.7 0 349 0C334.3 0 319.7 0 305.2 0C290.7 0 276.3 0 261.8 0C247.3 0 232.7 0 218.2 0C203.7 0 189.3 0 174.8 0C160.3 0 145.7 0 131 0C116.3 0 101.7 0 87.2 0C72.7 0 58.3 0 43.8 0C29.3 0 14.7 0 7.3 0L0 0Z" fill="#f2f6fc"></path><path d="M0 85L7.3 75.5C14.7 66 29.3 47 43.8 49.5C58.3 52 72.7 76 87.2 80C101.7 84 116.3 68 131 65.5C145.7 63 160.3 74 174.8 73.5C189.3 73 203.7 61 218.2 61C232.7 61 247.3 73 261.8 72.5C276.3 72 290.7 59 305.2 52.5C319.7 46 334.3 46 349 48C363.7 50 378.3 54 392.8 58.5C407.3 63 421.7 68 436.2 77C450.7 86 465.3 99 480 89.5C494.7 80 509.3 48 523.8 34.5C538.3 21 552.7 26 567.2 29.5C581.7 33 596.3 35 611 41C625.7 47 640.3 57 654.8 66C669.3 75 683.7 83 698.2 87C712.7 91 727.3 91 741.8 78.5C756.3 66 770.7 41 785.2 35.5C799.7 30 814.3 44 829 43.5C843.7 43 858.3 28 872.8 29C887.3 30 901.7 47 916.2 58C930.7 69 945.3 74 952.7 76.5L960 79L960 35L952.7 38C945.3 41 930.7 47 916.2 42.5C901.7 38 887.3 23 872.8 16.5C858.3 10 843.7 12 829 10.7C814.3 9.3 799.7 4.7 785.2 9.2C770.7 13.7 756.3 27.3 741.8 38.2C727.3 49 712.7 57 698.2 60.5C683.7 64 669.3 63 654.8 55.5C640.3 48 625.7 34 611 28C596.3 22 581.7 24 567.2 23C552.7 22 538.3 18 523.8 25.5C509.3 33 494.7 52 480 58.5C465.3 65 450.7 59 436.2 54.5C421.7 50 407.3 47 392.8 41C378.3 35 363.7 26 349 19C334.3 12 319.7 7 305.2 11C290.7 15 276.3 28 261.8 33C247.3 38 232.7 35 218.2 34.5C203.7 34 189.3 36 174.8 34.5C160.3 33 145.7 28 131 30C116.3 32 101.7 41 87.2 41C72.7 41 58.3 32 43.8 33.5C29.3 35 14.7 47 7.3 53L0 59Z" fill="#f0f5fc"></path><path d="M0 88L7.3 83C14.7 78 29.3 68 43.8 86C58.3 104 72.7 150 87.2 170.5C101.7 191 116.3 186 131 173C145.7 160 160.3 139 174.8 134C189.3 129 203.7 140 218.2 146.5C232.7 153 247.3 155 261.8 144C276.3 133 290.7 109 305.2 106C319.7 103 334.3 121 349 129.5C363.7 138 378.3 137 392.8 128C407.3 119 421.7 102 436.2 114C450.7 126 465.3 167 480 165C494.7 163 509.3 118 523.8 109.5C538.3 101 552.7 129 567.2 130.5C581.7 132 596.3 107 611 100C625.7 93 640.3 104 654.8 124.5C669.3 145 683.7 175 698.2 181C712.7 187 727.3 169 741.8 159.5C756.3 150 770.7 149 785.2 147C799.7 145 814.3 142 829 126.5C843.7 111 858.3 83 872.8 80.5C887.3 78 901.7 101 916.2 112C930.7 123 945.3 122 952.7 121.5L960 121L960 77L952.7 74.5C945.3 72 930.7 67 916.2 56C901.7 45 887.3 28 872.8 27C858.3 26 843.7 41 829 41.5C814.3 42 799.7 28 785.2 33.5C770.7 39 756.3 64 741.8 76.5C727.3 89 712.7 89 698.2 85C683.7 81 669.3 73 654.8 64C640.3 55 625.7 45 611 39C596.3 33 581.7 31 567.2 27.5C552.7 24 538.3 19 523.8 32.5C509.3 46 494.7 78 480 87.5C465.3 97 450.7 84 436.2 75C421.7 66 407.3 61 392.8 56.5C378.3 52 363.7 48 349 46C334.3 44 319.7 44 305.2 50.5C290.7 57 276.3 70 261.8 70.5C247.3 71 232.7 59 218.2 59C203.7 59 189.3 71 174.8 71.5C160.3 72 145.7 61 131 63.5C116.3 66 101.7 82 87.2 78C72.7 74 58.3 50 43.8 47.5C29.3 45 14.7 64 7.3 73.5L0 83Z" fill="#eff4fb"></path><path d="M0 133L7.3 121.5C14.7 110 29.3 87 43.8 105.5C58.3 124 72.7 184 87.2 211.5C101.7 239 116.3 234 131 214C145.7 194 160.3 159 174.8 148.5C189.3 138 203.7 152 218.2 161.5C232.7 171 247.3 176 261.8 168.5C276.3 161 290.7 141 305.2 139C319.7 137 334.3 153 349 160C363.7 167 378.3 165 392.8 157C407.3 149 421.7 135 436.2 142.5C450.7 150 465.3 179 480 172C494.7 165 509.3 122 523.8 114.5C538.3 107 552.7 135 567.2 142.5C581.7 150 596.3 137 611 136C625.7 135 640.3 146 654.8 159.5C669.3 173 683.7 189 698.2 191.5C712.7 194 727.3 183 741.8 174C756.3 165 770.7 158 785.2 152.5C799.7 147 814.3 143 829 129.5C843.7 116 858.3 93 872.8 95.5C887.3 98 901.7 126 916.2 139.5C930.7 153 945.3 152 952.7 151.5L960 151L960 119L952.7 119.5C945.3 120 930.7 121 916.2 110C901.7 99 887.3 76 872.8 78.5C858.3 81 843.7 109 829 124.5C814.3 140 799.7 143 785.2 145C770.7 147 756.3 148 741.8 157.5C727.3 167 712.7 185 698.2 179C683.7 173 669.3 143 654.8 122.5C640.3 102 625.7 91 611 98C596.3 105 581.7 130 567.2 128.5C552.7 127 538.3 99 523.8 107.5C509.3 116 494.7 161 480 163C465.3 165 450.7 124 436.2 112C421.7 100 407.3 117 392.8 126C378.3 135 363.7 136 349 127.5C334.3 119 319.7 101 305.2 104C290.7 107 276.3 131 261.8 142C247.3 153 232.7 151 218.2 144.5C203.7 138 189.3 127 174.8 132C160.3 137 145.7 158 131 171C116.3 184 101.7 189 87.2 168.5C72.7 148 58.3 102 43.8 84C29.3 66 14.7 76 7.3 81L0 86Z" fill="#edf3fb"></path><path d="M0 193L7.3 185.5C14.7 178 29.3 163 43.8 175C58.3 187 72.7 226 87.2 242C101.7 258 116.3 251 131 235.5C145.7 220 160.3 196 174.8 189C189.3 182 203.7 192 218.2 193.5C232.7 195 247.3 188 261.8 186C276.3 184 290.7 187 305.2 189.5C319.7 192 334.3 194 349 198.5C363.7 203 378.3 210 392.8 200.5C407.3 191 421.7 165 436.2 170C450.7 175 465.3 211 480 216.5C494.7 222 509.3 197 523.8 186.5C538.3 176 552.7 180 567.2 178.5C581.7 177 596.3 170 611 168C625.7 166 640.3 169 654.8 178.5C669.3 188 683.7 204 698.2 205C712.7 206 727.3 192 741.8 192C756.3 192 770.7 206 785.2 212.5C799.7 219 814.3 218 829 194.5C843.7 171 858.3 125 872.8 123.5C887.3 122 901.7 165 916.2 179C930.7 193 945.3 178 952.7 170.5L960 163L960 149L952.7 149.5C945.3 150 930.7 151 916.2 137.5C901.7 124 887.3 96 872.8 93.5C858.3 91 843.7 114 829 127.5C814.3 141 799.7 145 785.2 150.5C770.7 156 756.3 163 741.8 172C727.3 181 712.7 192 698.2 189.5C683.7 187 669.3 171 654.8 157.5C640.3 144 625.7 133 611 134C596.3 135 581.7 148 567.2 140.5C552.7 133 538.3 105 523.8 112.5C509.3 120 494.7 163 480 170C465.3 177 450.7 148 436.2 140.5C421.7 133 407.3 147 392.8 155C378.3 163 363.7 165 349 158C334.3 151 319.7 135 305.2 137C290.7 139 276.3 159 261.8 166.5C247.3 174 232.7 169 218.2 159.5C203.7 150 189.3 136 174.8 146.5C160.3 157 145.7 192 131 212C116.3 232 101.7 237 87.2 209.5C72.7 182 58.3 122 43.8 103.5C29.3 85 14.7 108 7.3 119.5L0 131Z" fill="#ebf2fa"></path><path d="M0 229L7.3 217C14.7 205 29.3 181 43.8 187C58.3 193 72.7 229 87.2 243.5C101.7 258 116.3 251 131 237C145.7 223 160.3 202 174.8 198C189.3 194 203.7 207 218.2 208.5C232.7 210 247.3 200 261.8 197C276.3 194 290.7 198 305.2 203.5C319.7 209 334.3 216 349 223.5C363.7 231 378.3 239 392.8 226.5C407.3 214 421.7 181 436.2 182.5C450.7 184 465.3 220 480 231C494.7 242 509.3 228 523.8 218.5C538.3 209 552.7 204 567.2 198C581.7 192 596.3 185 611 181.5C625.7 178 640.3 178 654.8 185C669.3 192 683.7 206 698.2 213C712.7 220 727.3 220 741.8 222C756.3 224 770.7 228 785.2 228.5C799.7 229 814.3 226 829 205.5C843.7 185 858.3 147 872.8 150.5C887.3 154 901.7 199 916.2 211C930.7 223 945.3 202 952.7 191.5L960 181L960 161L952.7 168.5C945.3 176 930.7 191 916.2 177C901.7 163 887.3 120 872.8 121.5C858.3 123 843.7 169 829 192.5C814.3 216 799.7 217 785.2 210.5C770.7 204 756.3 190 741.8 190C727.3 190 712.7 204 698.2 203C683.7 202 669.3 186 654.8 176.5C640.3 167 625.7 164 611 166C596.3 168 581.7 175 567.2 176.5C552.7 178 538.3 174 523.8 184.5C509.3 195 494.7 220 480 214.5C465.3 209 450.7 173 436.2 168C421.7 163 407.3 189 392.8 198.5C378.3 208 363.7 201 349 196.5C334.3 192 319.7 190 305.2 187.5C290.7 185 276.3 182 261.8 184C247.3 186 232.7 193 218.2 191.5C203.7 190 189.3 180 174.8 187C160.3 194 145.7 218 131 233.5C116.3 249 101.7 256 87.2 240C72.7 224 58.3 185 43.8 173C29.3 161 14.7 176 7.3 183.5L0 191Z" fill="#e4eef8"></path><path d="M0 235L7.3 227C14.7 219 29.3 203 43.8 209.5C58.3 216 72.7 245 87.2 255C101.7 265 116.3 256 131 245C145.7 234 160.3 221 174.8 218C189.3 215 203.7 222 218.2 223C232.7 224 247.3 219 261.8 219.5C276.3 220 290.7 226 305.2 230.5C319.7 235 334.3 238 349 244C363.7 250 378.3 259 392.8 245.5C407.3 232 421.7 196 436.2 195C450.7 194 465.3 228 480 237C494.7 246 509.3 230 523.8 219.5C538.3 209 552.7 204 567.2 201C581.7 198 596.3 197 611 199C625.7 201 640.3 206 654.8 213.5C669.3 221 683.7 231 698.2 235.5C712.7 240 727.3 239 741.8 242C756.3 245 770.7 252 785.2 250C799.7 248 814.3 237 829 216.5C843.7 196 858.3 166 872.8 170.5C887.3 175 901.7 214 916.2 227.5C930.7 241 945.3 229 952.7 223L960 217L960 179L952.7 189.5C945.3 200 930.7 221 916.2 209C901.7 197 887.3 152 872.8 148.5C858.3 145 843.7 183 829 203.5C814.3 224 799.7 227 785.2 226.5C770.7 226 756.3 222 741.8 220C727.3 218 712.7 218 698.2 211C683.7 204 669.3 190 654.8 183C640.3 176 625.7 176 611 179.5C596.3 183 581.7 190 567.2 196C552.7 202 538.3 207 523.8 216.5C509.3 226 494.7 240 480 229C465.3 218 450.7 182 436.2 180.5C421.7 179 407.3 212 392.8 224.5C378.3 237 363.7 229 349 221.5C334.3 214 319.7 207 305.2 201.5C290.7 196 276.3 192 261.8 195C247.3 198 232.7 208 218.2 206.5C203.7 205 189.3 192 174.8 196C160.3 200 145.7 221 131 235C116.3 249 101.7 256 87.2 241.5C72.7 227 58.3 191 43.8 185C29.3 179 14.7 203 7.3 215L0 227Z" fill="#deeaf7"></path><path d="M0 301L7.3 296.5C14.7 292 29.3 283 43.8 283C58.3 283 72.7 292 87.2 292C101.7 292 116.3 283 131 280C145.7 277 160.3 280 174.8 280C189.3 280 203.7 277 218.2 279C232.7 281 247.3 288 261.8 292.5C276.3 297 290.7 299 305.2 295.5C319.7 292 334.3 283 349 277.5C363.7 272 378.3 270 392.8 269C407.3 268 421.7 268 436.2 270C450.7 272 465.3 276 480 281.5C494.7 287 509.3 294 523.8 292C538.3 290 552.7 279 567.2 278.5C581.7 278 596.3 288 611 292C625.7 296 640.3 294 654.8 294.5C669.3 295 683.7 298 698.2 298C712.7 298 727.3 295 741.8 293C756.3 291 770.7 290 785.2 291.5C799.7 293 814.3 297 829 296C843.7 295 858.3 289 872.8 284C887.3 279 901.7 275 916.2 275.5C930.7 276 945.3 281 952.7 283.5L960 286L960 215L952.7 221C945.3 227 930.7 239 916.2 225.5C901.7 212 887.3 173 872.8 168.5C858.3 164 843.7 194 829 214.5C814.3 235 799.7 246 785.2 248C770.7 250 756.3 243 741.8 240C727.3 237 712.7 238 698.2 233.5C683.7 229 669.3 219 654.8 211.5C640.3 204 625.7 199 611 197C596.3 195 581.7 196 567.2 199C552.7 202 538.3 207 523.8 217.5C509.3 228 494.7 244 480 235C465.3 226 450.7 192 436.2 193C421.7 194 407.3 230 392.8 243.5C378.3 257 363.7 248 349 242C334.3 236 319.7 233 305.2 228.5C290.7 224 276.3 218 261.8 217.5C247.3 217 232.7 222 218.2 221C203.7 220 189.3 213 174.8 216C160.3 219 145.7 232 131 243C116.3 254 101.7 263 87.2 253C72.7 243 58.3 214 43.8 207.5C29.3 201 14.7 217 7.3 225L0 233Z" fill="#d7e5f5"></path><path d="M0 301L7.3 301C14.7 301 29.3 301 43.8 301C58.3 301 72.7 301 87.2 301C101.7 301 116.3 301 131 301C145.7 301 160.3 301 174.8 301C189.3 301 203.7 301 218.2 301C232.7 301 247.3 301 261.8 301C276.3 301 290.7 301 305.2 301C319.7 301 334.3 301 349 301C363.7 301 378.3 301 392.8 301C407.3 301 421.7 301 436.2 301C450.7 301 465.3 301 480 301C494.7 301 509.3 301 523.8 301C538.3 301 552.7 301 567.2 301C581.7 301 596.3 301 611 301C625.7 301 640.3 301 654.8 301C669.3 301 683.7 301 698.2 301C712.7 301 727.3 301 741.8 301C756.3 301 770.7 301 785.2 301C799.7 301 814.3 301 829 301C843.7 301 858.3 301 872.8 301C887.3 301 901.7 301 916.2 301C930.7 301 945.3 301 952.7 301L960 301L960 284L952.7 281.5C945.3 279 930.7 274 916.2 273.5C901.7 273 887.3 277 872.8 282C858.3 287 843.7 293 829 294C814.3 295 799.7 291 785.2 289.5C770.7 288 756.3 289 741.8 291C727.3 293 712.7 296 698.2 296C683.7 296 669.3 293 654.8 292.5C640.3 292 625.7 294 611 290C596.3 286 581.7 276 567.2 276.5C552.7 277 538.3 288 523.8 290C509.3 292 494.7 285 480 279.5C465.3 274 450.7 270 436.2 268C421.7 266 407.3 266 392.8 267C378.3 268 363.7 270 349 275.5C334.3 281 319.7 290 305.2 293.5C290.7 297 276.3 295 261.8 290.5C247.3 286 232.7 279 218.2 277C203.7 275 189.3 278 174.8 278C160.3 278 145.7 275 131 278C116.3 281 101.7 290 87.2 290C72.7 290 58.3 281 43.8 281C29.3 281 14.7 290 7.3 294.5L0 299Z" fill="#d1e1f4"></path></svg>