<svg id="visual" viewBox="0 0 960 300" width="960" height="300" xmlns="http://www.w3.org/2000/svg" xmlns:xlink="http://www.w3.org/1999/xlink" version="1.1"><path d="M0 118L26.7 114.8C53.3 111.7 106.7 105.3 160 101.2C213.3 97 266.7 95 320 107C373.3 119 426.7 145 480 161.5C533.3 178 586.7 185 640 180.8C693.3 176.7 746.7 161.3 800 146.7C853.3 132 906.7 118 933.3 111L960 104L960 0L933.3 0C906.7 0 853.3 0 800 0C746.7 0 693.3 0 640 0C586.7 0 533.3 0 480 0C426.7 0 373.3 0 320 0C266.7 0 213.3 0 160 0C106.7 0 53.3 0 26.7 0L0 0Z" fill="#ebf2fa" stroke-linecap="round" stroke-linejoin="miter"></path></svg>