<svg id="visual" viewBox="0 0 960 300" width="960" height="300" xmlns="http://www.w3.org/2000/svg" xmlns:xlink="http://www.w3.org/1999/xlink" version="1.1"><path d="M0 49L87 52L175 34L262 58L349 58L436 49L524 49L611 25L698 64L785 58L873 34L960 25L960 0L873 0L785 0L698 0L611 0L524 0L436 0L349 0L262 0L175 0L87 0L0 0Z" fill="#ebf2fa"></path><path d="M0 121L87 118L175 91L262 85L349 91L436 97L524 112L611 73L698 124L785 121L873 115L960 82L960 23L873 32L785 56L698 62L611 23L524 47L436 47L349 56L262 56L175 32L87 50L0 47Z" fill="#e4ecfb"></path><path d="M0 178L87 178L175 187L262 154L349 220L436 199L524 223L611 172L698 175L785 199L873 175L960 157L960 80L873 113L785 119L698 122L611 71L524 110L436 95L349 89L262 83L175 89L87 116L0 119Z" fill="#e0e8fb"></path><path d="M0 217L87 223L175 223L262 196L349 247L436 244L524 247L611 190L698 208L785 244L873 196L960 208L960 155L873 173L785 197L698 173L611 170L524 221L436 197L349 218L262 152L175 185L87 176L0 176Z" fill="#e4ecfb"></path><path d="M0 301L87 301L175 301L262 301L349 301L436 301L524 301L611 301L698 301L785 301L873 301L960 301L960 206L873 194L785 242L698 206L611 188L524 245L436 242L349 245L262 194L175 221L87 221L0 215Z" fill="#ebf2fa"></path></svg>